<?xml version="1.0" encoding="UTF-8"?>
<svg width="123px" height="30px" viewBox="0 0 123 30" version="1.1" xmlns="http://www.w3.org/2000/svg" xmlns:xlink="http://www.w3.org/1999/xlink">
    <!-- Generator: Sketch 46.2 (44496) - http://www.bohemiancoding.com/sketch -->
    <title>logo</title>
    <desc>Created with Sketch.</desc>
    <defs>
        <polygon id="path-1" points="0.0002 0.015 28.5292 0.015 28.5292 15.9799 0.0002 15.9799 0.0002 0.015"></polygon>
    </defs>
    <g id="Page-1" stroke="none" stroke-width="1" fill="none" fill-rule="evenodd">
        <g id="logo" transform="translate(0.000000, -1.000000)">
            <g id="Group-3" transform="translate(0.000000, 0.985100)">
                <mask id="mask-2" fill="white">
                    <use xlink:href="#path-1"></use>
                </mask>
                <g id="Clip-2"></g>
                <path d="M28.4802,13.0869 C27.8712,5.7769 21.7282,0.0149 14.2652,0.0149 C6.8012,0.0149 0.6592,5.7769 0.0492,13.0869 C0.0172,13.4799 0.0002,13.8779 0.0002,14.2789 C0.0002,14.5519 0.0092,14.8239 0.0242,15.0919 C0.0242,15.0919 0.0432,15.9799 1.1252,15.9799 L1.6632,15.9799 L3.0202,15.9799 L5.9262,15.9799 C5.4662,15.0669 5.5062,13.9679 6.0432,13.0869 L2.9552,13.0869 C3.5532,7.3749 8.3962,2.9069 14.2652,2.9069 C20.1332,2.9069 24.9762,7.3749 25.5742,13.0869 L22.4872,13.0869 C23.0232,13.9679 23.0632,15.0669 22.6032,15.9799 L25.5092,15.9799 L26.8672,15.9799 L27.4042,15.9799 C28.4862,15.9799 28.5052,15.0919 28.5052,15.0919 C28.5202,14.8239 28.5292,14.5519 28.5292,14.2789 C28.5292,13.8779 28.5122,13.4799 28.4802,13.0869" id="Fill-1" fill="#FCD000" mask="url(#mask-2)"></path>
            </g>
            <path d="M59.9328,15.1228 L46.5068,15.1228 C46.4178,15.1228 46.3308,15.1558 46.2648,15.2238 C46.1988,15.2908 46.1658,15.3768 46.1658,15.4648 L46.1658,16.4038 C46.1658,16.4908 46.1988,16.5778 46.2648,16.6448 C46.3308,16.7118 46.4178,16.7448 46.5068,16.7448 L59.9328,16.7448 C60.0188,16.7448 60.1068,16.7118 60.1728,16.6448 C60.2398,16.5778 60.2728,16.4908 60.2728,16.4038 L60.2728,15.4648 C60.2728,15.3768 60.2398,15.2908 60.1728,15.2238 C60.1068,15.1558 60.0188,15.1228 59.9328,15.1228" id="Fill-4" fill="#FFFFFF"></path>
            <path d="M122.3782,19.5036 C122.3102,19.4376 122.2242,19.4036 122.1362,19.4036 L117.1202,19.4036 C117.0342,19.4036 116.9462,19.3706 116.8782,19.3036 C116.8122,19.2396 116.7782,19.1496 116.7782,19.0626 L116.7782,17.6236 C116.7782,17.5366 116.8122,17.4506 116.8782,17.3826 C116.9462,17.3166 117.0342,17.2836 117.1202,17.2836 L120.8792,17.2836 C120.9672,17.2836 121.0552,17.2486 121.1222,17.1826 C121.1882,17.1156 121.2202,17.0296 121.2202,16.9426 L121.2202,16.2176 C121.2202,16.1316 121.1882,16.0446 121.1222,15.9776 C121.0552,15.9116 120.9672,15.8776 120.8792,15.8776 L117.1202,15.8776 C117.0342,15.8776 116.9462,15.8436 116.8782,15.7766 C116.8122,15.7106 116.7782,15.6226 116.7782,15.5356 L116.7782,14.1576 C116.7782,14.0696 116.7452,13.9826 116.6792,13.9166 C116.6122,13.8486 116.5232,13.8156 116.4372,13.8156 L115.5432,13.8156 C115.4572,13.8156 115.3702,13.8486 115.3022,13.9166 C115.2362,13.9826 115.2022,14.0696 115.2022,14.1576 L115.2022,15.5356 C115.2022,15.6226 115.1702,15.7106 115.1022,15.7766 C115.0352,15.8436 114.9472,15.8776 114.8612,15.8776 L111.9272,15.8776 C112.7372,14.6906 113.3452,13.8066 113.9182,12.6956 L121.7762,12.6956 C121.8632,12.6956 121.9512,12.6606 122.0192,12.5946 C122.0862,12.5286 122.1192,12.4406 122.1192,12.3556 L122.1192,11.8256 C122.1192,11.7386 122.0862,11.6496 122.0192,11.5846 C121.9512,11.5186 121.8632,11.4846 121.7762,11.4846 L114.4812,11.4846 C114.6202,11.1546 114.7472,10.8006 114.8662,10.4316 C114.8752,10.4036 114.8842,10.3756 114.8942,10.3476 C114.8992,10.3266 114.9012,10.3036 114.9012,10.2806 C114.9012,10.0886 114.7432,9.9306 114.5472,9.9306 L113.4042,9.9306 C113.2812,9.9306 113.1722,9.9946 113.1102,10.0916 C113.0732,10.1466 113.0522,10.2116 113.0522,10.2806 C113.0522,10.2806 113.0532,10.2856 113.0532,10.2936 C113.0722,10.2266 113.0602,10.2706 113.0512,10.2976 C112.9912,10.6946 112.7842,11.2846 112.6732,11.4846 L109.4872,11.4846 C109.3992,11.4846 109.3132,11.5186 109.2462,11.5846 C109.1792,11.6496 109.1472,11.7386 109.1472,11.8256 L109.1472,12.3556 C109.1472,12.4406 109.1792,12.5286 109.2462,12.5946 C109.3132,12.6606 109.3992,12.6956 109.4872,12.6956 L112.0602,12.6956 C111.6202,13.6916 110.8382,15.0406 110.1632,16.1476 C110.0802,16.2726 110.1302,16.9746 110.1302,16.9746 C110.1302,17.0626 110.1632,17.1496 110.2292,17.2156 C110.2962,17.2836 110.3832,17.2836 110.4712,17.2836 L114.8612,17.2836 C114.9472,17.2836 115.0352,17.3166 115.1022,17.3826 C115.1702,17.4506 115.2022,17.5366 115.2022,17.6236 L115.2022,19.0626 C115.2022,19.1496 115.1702,19.2396 115.1022,19.3036 C115.0352,19.3706 114.9472,19.4036 114.8612,19.4036 L109.0702,19.4036 C108.9822,19.4036 108.8932,19.4376 108.8272,19.5036 C108.7602,19.5726 108.7282,19.6596 108.7282,19.7466 L108.7282,20.4106 C108.7282,20.4956 108.7602,20.5846 108.8272,20.6496 C108.8932,20.7166 108.9822,20.7506 109.0702,20.7506 L114.8612,20.7506 C114.9472,20.7506 115.0352,20.7836 115.1022,20.8516 C115.1702,20.9166 115.2022,21.0046 115.2022,21.0896 L115.2022,23.7986 C115.2022,23.8866 115.2362,23.9746 115.3022,24.0396 C115.3702,24.1066 115.4572,24.1426 115.5432,24.1426 L116.4372,24.1426 C116.5232,24.1426 116.6122,24.1066 116.6792,24.0396 C116.7452,23.9746 116.7782,23.8866 116.7782,23.7986 L116.7782,21.0896 C116.7782,21.0046 116.8122,20.9166 116.8782,20.8516 C116.9462,20.7836 117.0342,20.7506 117.1202,20.7506 L122.1362,20.7506 C122.2242,20.7506 122.3102,20.7166 122.3782,20.6496 C122.4442,20.5846 122.4762,20.4956 122.4762,20.4106 L122.4762,19.7466 C122.4762,19.6596 122.4442,19.5726 122.3782,19.5036" id="Fill-6" fill="#FFFFFF"></path>
            <path d="M80.5476,14.0255 L75.6836,14.0255 C75.5966,14.0255 75.5106,13.9905 75.4426,13.9245 C75.3776,13.8575 75.3436,13.7685 75.3436,13.6835 L75.3436,12.9775 C75.3436,12.8895 75.3776,12.8015 75.4426,12.7355 C75.5106,12.6685 75.5966,12.6345 75.6836,12.6345 L79.4716,12.6345 C79.5576,12.6345 79.6456,12.6015 79.7116,12.5365 C79.7786,12.4695 79.8126,12.3815 79.8126,12.2955 L79.8126,11.8255 C79.8126,11.7385 79.7786,11.6495 79.7116,11.5845 C79.6456,11.5185 79.5576,11.4845 79.4716,11.4845 L75.6836,11.4845 C75.5966,11.4845 75.5106,11.4485 75.4426,11.3835 C75.3776,11.3185 75.3436,11.2305 75.3436,11.1445 L75.3436,10.2705 C75.3436,10.1845 75.3086,10.0985 75.2436,10.0305 C75.1776,9.9625 75.0886,9.9305 75.0026,9.9305 L73.9956,9.9305 C73.9076,9.9305 73.8206,9.9625 73.7546,10.0305 C73.6866,10.0985 73.6536,10.1845 73.6536,10.2705 L73.6536,13.6835 C73.6536,13.7685 73.6206,13.8575 73.5566,13.9245 C73.4876,13.9905 73.3996,14.0255 73.3126,14.0255 L71.3806,14.0255 C71.2936,14.0255 71.2076,13.9905 71.1386,13.9245 C71.0736,13.8575 71.0396,13.7685 71.0396,13.6835 L71.0396,11.6025 C71.0396,11.5155 71.0086,11.4295 70.9396,11.3615 C70.8736,11.2945 70.7846,11.2615 70.6976,11.2615 L69.8526,11.2615 C69.7656,11.2615 69.6786,11.2945 69.6116,11.3615 C69.5436,11.4295 69.5096,11.5155 69.5096,11.6025 L69.5096,13.6835 C69.5096,13.7685 69.4766,13.8575 69.4116,13.9245 C69.3456,13.9905 69.2576,14.0255 69.1706,14.0255 L67.4796,14.0255 C67.3926,14.0255 67.3056,14.0575 67.2366,14.1245 C67.1706,14.1925 67.1386,14.2775 67.1386,14.3635 L67.1386,15.0875 C67.1386,15.1765 67.1706,15.2645 67.2366,15.3315 C67.3056,15.3965 67.3926,15.4285 67.4796,15.4285 L80.5476,15.4285 C80.6346,15.4285 80.7216,15.3965 80.7876,15.3315 C80.8556,15.2645 80.8886,15.1765 80.8886,15.0875 L80.8886,14.3635 C80.8886,14.2775 80.8556,14.1925 80.7876,14.1245 C80.7216,14.0575 80.6346,14.0255 80.5476,14.0255" id="Fill-8" fill="#FFFFFF"></path>
            <path d="M74.9426,20.1514 C75.0306,20.1514 75.1176,20.1194 75.1836,20.0524 C75.2506,19.9864 75.2856,19.8994 75.2856,19.8114 L75.2856,16.6264 C75.2856,16.5384 75.2506,16.4504 75.1836,16.3854 C75.1176,16.3184 75.0306,16.2844 74.9426,16.2844 L74.0406,16.2844 C73.9546,16.2844 73.8656,16.3184 73.7996,16.3854 C73.7326,16.4504 73.6976,16.5384 73.6976,16.6264 L73.6976,19.8114 C73.6976,19.8994 73.7326,19.9864 73.7996,20.0524 C73.8656,20.1194 73.9546,20.1514 74.0406,20.1514 L74.9426,20.1514 Z" id="Fill-10" fill="#FFFFFF"></path>
            <path d="M79.9267,17.3211 L78.8177,17.3211 C78.7187,17.3211 78.6317,17.3601 78.5677,17.4241 C78.5507,17.4481 78.5327,17.4691 78.5147,17.4921 C77.5547,18.7681 76.6517,19.8111 75.4927,20.5481 C73.7937,21.6301 70.9507,22.7101 67.9477,23.2481 L67.9417,23.2481 C67.7807,23.2831 67.6617,23.4241 67.6617,23.5921 L67.6617,23.9141 C67.6617,24.1011 67.8097,24.2541 67.9957,24.2641 C68.0437,24.2581 68.0907,24.2491 68.1387,24.2431 C73.8027,23.4011 77.8177,21.2951 80.1767,17.9231 C80.2037,17.8841 80.2267,17.8431 80.2537,17.8071 C80.2697,17.7631 80.2807,17.7201 80.2807,17.6721 C80.2807,17.4781 80.1217,17.3211 79.9267,17.3211" id="Fill-12" fill="#FFFFFF"></path>
            <path d="M69.5758,20.1514 C69.6878,20.1514 69.7858,20.0974 69.8508,20.0184 C69.8708,19.9914 69.8888,19.9654 69.9008,19.9364 C70.3898,19.1184 70.8978,18.1874 71.1598,17.1444 C71.1758,17.0754 71.1908,17.0104 71.2068,16.9454 C71.1958,16.7894 71.0838,16.6614 70.9358,16.6264 L70.7758,16.6264 L69.9818,16.6264 C69.7898,16.6264 69.6358,16.7794 69.6348,16.9744 L69.6318,16.9784 L69.6318,16.9794 C69.4458,17.8714 69.1328,18.7524 68.6838,19.6214 C68.6748,19.6374 68.6678,19.6534 68.6578,19.6704 C68.6428,19.7094 68.6338,19.7534 68.6338,19.7984 C68.6338,19.9954 68.7928,20.1514 68.9858,20.1514 L69.5758,20.1514 Z" id="Fill-14" fill="#FFFFFF"></path>
            <path d="M99.5958,13.8323 L99.5958,13.9843 C99.5958,14.0733 99.5638,14.1603 99.4958,14.2253 C99.4278,14.2933 99.3408,14.3273 99.2538,14.3273 L96.4458,14.3303 C96.3598,14.3303 96.4078,14.2963 96.3408,14.2283 C96.2748,14.1633 96.2418,14.0763 96.2418,13.9873 L96.2418,11.7783 L97.3258,11.7783 C99.3368,11.7783 99.6028,12.1593 99.6028,13.7743 L99.6028,13.8323 L99.5958,13.8323 Z M99.5958,17.4973 C99.5958,17.5853 99.5638,17.6713 99.4958,17.7393 C99.4278,17.8053 99.3408,17.8383 99.2538,17.8383 L96.4458,17.8413 C96.3598,17.8413 96.4078,17.8073 96.3408,17.7423 C96.2748,17.6743 96.2418,17.5873 96.2418,17.4993 L96.2418,15.9573 C96.2418,15.8693 96.2748,15.7813 96.3408,15.7163 C96.4078,15.6473 96.3598,15.6163 96.4458,15.6163 L99.2538,15.6133 C99.3408,15.6133 99.4278,15.6453 99.4958,15.7123 C99.5638,15.7783 99.5958,15.8663 99.5958,15.9543 L99.5958,17.4973 Z M94.5638,14.2253 C94.4988,14.2933 94.4118,14.3273 94.3228,14.3273 L91.6698,14.3273 C91.5838,14.3273 91.4958,14.2933 91.4298,14.2253 C91.3618,14.1603 91.3318,14.0733 91.3318,13.9843 L91.3318,13.6753 L91.3318,12.8143 L91.3318,12.5263 C91.3318,12.5263 91.2718,11.7783 92.4038,11.7783 L94.6648,11.7783 L94.6648,13.9843 C94.6648,14.0733 94.6318,14.1603 94.5638,14.2253 L94.5638,14.2253 Z M94.6648,17.4973 C94.6648,17.5853 94.6318,17.6713 94.5638,17.7393 C94.4988,17.8053 94.4118,17.8383 94.3228,17.8383 L91.6698,17.8383 C91.5838,17.8383 91.4958,17.8053 91.4298,17.7393 C91.3618,17.6713 91.3318,17.5853 91.3318,17.4973 L91.3318,15.9543 C91.3318,15.8663 91.3618,15.7783 91.4298,15.7123 C91.4958,15.6453 91.5838,15.6133 91.6698,15.6133 L94.3228,15.6133 C94.4118,15.6133 94.4988,15.6453 94.5638,15.7123 C94.6318,15.7783 94.6648,15.8663 94.6648,15.9543 L94.6648,17.4973 Z M98.3128,10.4853 L90.8048,10.4853 C89.6738,10.4853 89.7328,11.2423 89.7328,11.2423 L89.7328,12.6613 L89.7558,12.6803 L89.7328,12.6803 L89.7438,18.9813 C89.8188,20.5873 89.4368,22.2573 88.6028,23.0933 L88.5998,23.0973 C88.5538,23.1363 88.5148,23.1873 88.4848,23.2413 C88.4848,23.2413 88.4848,23.2423 88.4838,23.2433 C88.4718,23.2683 88.4618,23.2923 88.4518,23.3193 C88.4518,23.3193 88.4488,23.3273 88.4488,23.3313 C88.4388,23.3613 88.4318,23.3933 88.4288,23.4243 C88.4268,23.4423 88.4238,23.4603 88.4238,23.4783 C88.4238,23.4943 88.4268,23.5113 88.4288,23.5303 C88.4538,23.7853 88.6678,23.9823 88.9308,23.9823 C89.0328,23.9823 89.1288,23.9523 89.2098,23.8983 C89.2118,23.8983 89.2128,23.8943 89.2128,23.8943 C90.7088,22.6903 91.0738,21.1613 91.3318,19.1243 L94.3228,19.1243 C94.4118,19.1243 94.4988,19.1573 94.5638,19.2253 C94.6318,19.2903 94.6648,19.3793 94.6648,19.4653 L94.6648,23.7133 C94.6648,23.8013 94.6978,23.8893 94.7648,23.9543 C94.8328,24.0223 94.9178,24.0553 95.0068,24.0553 L95.9968,24.0553 C96.0838,24.0553 96.0748,24.0233 96.1398,23.9563 C96.2068,23.8913 96.2418,23.8033 96.2418,23.7153 L96.2418,19.4673 C96.2418,19.3823 96.2748,19.2933 96.3408,19.2273 C96.4078,19.1603 96.3598,19.1273 96.4458,19.1273 L99.2538,19.1243 C99.3408,19.1243 99.4278,19.1573 99.4958,19.2253 C99.5638,19.2903 99.5958,19.3793 99.5958,19.4653 L99.5958,22.1343 C99.6358,22.6513 99.3368,22.8903 98.6998,22.8513 L98.3978,22.8513 C98.3108,22.8513 98.2228,22.8853 98.1568,22.9503 C98.0908,23.0173 98.0578,23.1063 98.0578,23.1913 L98.0578,23.6473 C98.0578,23.7343 98.0908,23.8193 98.1568,23.8873 C98.2228,23.9543 98.3108,23.9863 98.3978,23.9863 L99.3118,23.9863 C100.6268,23.9863 101.1848,23.3503 101.1848,22.0743 L101.1898,15.8883 L101.1918,15.8873 L101.1918,13.5813 C101.1918,12.0243 100.5468,10.4853 98.3128,10.4853 L98.3128,10.4853 Z" id="Fill-16" fill="#FFFFFF"></path>
            <path d="M14.3144,30.9851 C8.9364,30.9851 4.0554,28.0171 1.5784,23.2381 C1.2204,22.5471 1.4904,21.6981 2.1814,21.3391 C2.8714,20.9821 3.7214,21.2501 4.0794,21.9401 C6.0714,25.7821 9.9934,28.1671 14.3144,28.1671 C18.5564,28.1671 22.4444,25.8461 24.4614,22.1081 C24.8294,21.4231 25.6844,21.1681 26.3694,21.5371 C27.0544,21.9081 27.3094,22.7611 26.9404,23.4461 C24.4314,28.0971 19.5944,30.9851 14.3144,30.9851" id="Fill-18" fill="#FFFFFF"></path>
            <path d="M18.5227,17.1355 C18.1197,16.7305 17.8967,16.1925 17.8967,15.6205 C17.8967,15.0475 18.1197,14.5105 18.5227,14.1075 L19.5447,15.1295 C19.4137,15.2605 19.3417,15.4345 19.3417,15.6205 C19.3417,15.8075 19.4137,15.9805 19.5447,16.1125 L18.5227,17.1355 Z M21.5517,17.1355 L20.5287,16.1125 C20.7987,15.8415 20.7987,15.4005 20.5287,15.1295 L21.5517,14.1075 C22.3857,14.9415 22.3857,16.3005 21.5517,17.1355 L21.5517,17.1355 Z" id="Fill-20" fill="#FFFFFF"></path>
            <path d="M11.0062,14.072 C11.5422,14.953 11.5822,16.052 11.1232,16.965 L17.3742,16.965 C16.9152,16.052 16.9542,14.953 17.4902,14.072 L11.0062,14.072 Z" id="Fill-22" fill="#FCD000"></path>
            <path d="M6.979,17.1365 C6.574,16.7315 6.352,16.1945 6.352,15.6215 C6.352,15.0495 6.574,14.5115 6.979,14.1085 L8.001,15.1305 C7.87,15.2615 7.797,15.4355 7.797,15.6215 C7.797,15.8085 7.87,15.9825 8.001,16.1135 L6.979,17.1365 Z M10.006,17.1365 L8.983,16.1135 C9.255,15.8425 9.255,15.4015 8.983,15.1305 L10.006,14.1085 C10.842,14.9425 10.842,16.3015 10.006,17.1365 L10.006,17.1365 Z" id="Fill-24" fill="#FFFFFF"></path>
            <path d="M8.4917,18.0032 L8.4917,18.0032 C7.8557,18.0022 7.2577,17.7552 6.8077,17.3062 C5.8797,16.3782 5.8797,14.8672 6.8077,13.9372 C7.2577,13.4882 7.8557,13.2412 8.4917,13.2412 C9.1287,13.2412 9.7277,13.4882 10.1757,13.9372 C11.1047,14.8672 11.1037,16.3782 10.1757,17.3062 C9.7277,17.7552 9.1287,18.0032 8.4917,18.0032 M11.4137,12.7002 C10.6347,11.9212 9.5967,11.4912 8.4917,11.4912 C7.3867,11.4912 6.3487,11.9212 5.5697,12.7002 C3.9597,14.3112 3.9597,16.9332 5.5697,18.5442 C6.3487,19.3232 7.3867,19.7532 8.4917,19.7532 C9.5967,19.7532 10.6347,19.3232 11.4137,18.5442 C13.0247,16.9332 13.0247,14.3112 11.4137,12.7002" id="Fill-26" fill="#FFFFFF"></path>
            <path d="M21.7209,17.3064 C21.2719,17.7554 20.6739,18.0024 20.0349,18.0024 C19.3979,18.0024 18.8009,17.7554 18.3519,17.3064 C17.4229,16.3784 17.4229,14.8664 18.3519,13.9374 C18.8009,13.4884 19.3989,13.2414 20.0359,13.2414 C20.6739,13.2414 21.2719,13.4884 21.7209,13.9374 C22.6489,14.8664 22.6489,16.3764 21.7209,17.3064 M22.9589,12.7004 C22.1779,11.9204 21.1419,11.4914 20.0359,11.4914 C18.9319,11.4914 17.8939,11.9204 17.1149,12.7004 C15.5039,14.3114 15.5039,16.9324 17.1149,18.5434 C17.8939,19.3234 18.9319,19.7514 20.0359,19.7514 C21.1419,19.7514 22.1779,19.3234 22.9589,18.5434 C23.7389,17.7644 24.1669,16.7264 24.1669,15.6214 C24.1669,14.5184 23.7389,13.4794 22.9589,12.7004" id="Fill-28" fill="#FFFFFF"></path>
        </g>
    </g>
</svg>