<?xml version="1.0" standalone="no"?><!DOCTYPE svg PUBLIC "-//W3C//DTD SVG 1.1//EN" "http://www.w3.org/Graphics/SVG/1.1/DTD/svg11.dtd"><svg t="1511330614517" class="icon" style="" viewBox="0 0 1024 1024" version="1.1" xmlns="http://www.w3.org/2000/svg" p-id="2765" xmlns:xlink="http://www.w3.org/1999/xlink" width="200" height="200"><defs><style type="text/css"><!-- path{fill:#545c64} --></style></defs><path d="M992 85.312l-960 0c-17.664 0-32 14.336-32 32l0 21.312c0 17.664 14.336 32 32 32l960 0c17.664 0 32-14.336 32-32L1024 117.312C1024 99.648 1009.664 85.312 992 85.312zM992 853.312l-960 0c-17.664 0-32 14.336-32 32l0 21.312c0 17.664 14.336 32 32 32l960 0c17.664 0 32-14.336 32-32l0-21.312C1024 867.648 1009.664 853.312 992 853.312zM32 426.688l490.688 0c17.664 0 32-14.336 32-32L554.688 373.312c0-17.664-14.336-32-32-32L32 341.312c-17.664 0-32 14.336-32 32l0 21.312C0 412.352 14.336 426.688 32 426.688zM32 682.688l618.688 0c17.664 0 32-14.336 32-32L682.688 629.312c0-17.664-14.336-32-32-32L32 597.312c-17.664 0-32 14.336-32 32l0 21.312C0 668.352 14.336 682.688 32 682.688z" p-id="2766"></path></svg>