<?xml version="1.0" standalone="no"?>
<!DOCTYPE svg PUBLIC "-//W3C//DTD SVG 20010904//EN"
 "http://www.w3.org/TR/2001/REC-SVG-20010904/DTD/svg10.dtd">
<svg version="1.0" xmlns="http://www.w3.org/2000/svg"
 width="213.000000pt" height="213.000000pt" viewBox="0 0 213.000000 213.000000"
 preserveAspectRatio="xMidYMid meet">
<metadata>
Created by potrace 1.11, written by Peter Selinger 2001-2013
</metadata>
<g transform="translate(0.000000,213.000000) scale(0.100000,-0.100000)"
fill="#000000" stroke="none">
<path d="M851 2105 c-366 -80 -654 -340 -764 -690 -31 -99 -36 -132 -43 -265
-6 -94 -4 -108 13 -129 18 -22 25 -23 161 -25 l142 -1 31 -53 c55 -98 153
-148 273 -140 107 7 180 54 238 153 l23 40 120 -1 c66 -1 125 -2 130 -3 6 -1
19 -20 30 -42 26 -54 95 -114 155 -134 141 -47 286 10 359 141 l22 40 142 1
c180 1 180 0 176 148 -12 469 -354 872 -817 961 -93 18 -306 17 -391 -1z m354
-200 c310 -65 548 -291 626 -594 29 -112 29 -111 -40 -111 l-59 0 -26 45
c-104 176 -380 179 -488 5 l-31 -50 -138 0 c-130 0 -138 1 -144 20 -13 40
-108 124 -160 143 -131 45 -273 -1 -346 -114 l-31 -49 -59 0 c-42 0 -59 4 -59
13 0 38 47 191 76 251 44 87 79 138 140 202 120 125 235 189 434 241 56 14
231 13 305 -2z m-515 -657 c134 -38 159 -218 43 -298 -84 -58 -199 -23 -243
74 -36 79 2 180 83 216 46 21 66 22 117 8z m846 -9 c15 -8 41 -31 58 -52 55
-69 36 -186 -39 -235 -70 -45 -151 -37 -212 21 -73 69 -67 178 13 248 43 37
123 45 180 18z"/>
<path d="M505 1145 c-20 -52 -15 -104 13 -140 l19 -24 33 34 c24 25 31 40 27
56 -3 12 -2 30 3 39 7 13 1 24 -26 49 -20 17 -40 31 -44 31 -5 0 -16 -20 -25
-45z"/>
<path d="M714 1158 c-38 -42 -40 -91 -4 -136 14 -18 31 -32 37 -32 19 0 44 57
45 99 0 37 -25 101 -40 101 -5 0 -22 -15 -38 -32z"/>
<path d="M1326 1156 c-20 -43 -21 -98 -1 -136 19 -38 28 -37 66 1 24 25 29 36
24 59 -4 16 -2 31 5 35 10 6 -52 75 -69 75 -5 0 -16 -15 -25 -34z"/>
<path d="M1532 1162 c-24 -24 -29 -36 -27 -75 1 -36 7 -51 29 -72 15 -14 32
-25 37 -25 15 0 39 65 39 106 0 35 -26 94 -42 94 -4 0 -20 -13 -36 -28z"/>
<path d="M210 688 c-69 -26 -85 -82 -45 -160 133 -258 415 -459 721 -512 75
-14 277 -15 334 -2 14 3 39 8 55 12 105 20 252 84 360 157 148 99 325 321 325
407 0 47 -47 90 -97 90 -49 -1 -69 -18 -127 -108 -115 -181 -312 -314 -531
-357 -73 -15 -213 -14 -295 1 -235 44 -417 169 -554 381 -58 90 -92 111 -146
91z"/>
</g>
</svg>
